# xmcd
#
# Track frame offsets:
#	150
#	24455
#	44205
#	60962
#	76652
#	94435
#	108090
#	123460
#	141843
#	160419
#	176498
#	196736
#	210273
#	225585
#	237338
#	249182
#	265366
#	281835
#	298269
#	310127
#	324016
#
# Disc length: 4587
#
# Revision: 1
# Processed by: cddbd v1.5.1PL0 Copyright (c) Steve Scherf et al.
# Submitted via: CDex 1.50beta10
# Normalized: r0:TDELIM( - )
#
DISCID=2211e915
DTITLE=Various Artist - CDX 305 November 2002
DYEAR=2002
DGENRE=Country
TTITLE0=Cross Canadian Ragweed - 17
TTITLE1=Daron Norwood - In God We Trust
TTITLE2=Tracy Byrd - Lately (Dreamin' 'Bout Babies)
TTITLE3=Vince Gill - Next Big Thing
TTITLE4=Keith Urban - Raining On Sunday
TTITLE5=Charlie Daniels Band with Travis Tritt - Southern Boy
TTITLE6=Pam Tillis - So Wrong
TTITLE7=Rodney Redman - (Talkin' To Go More) These Days
TTITLE8=Faith Hill - When The Lights Go Down
TTITLE9=Chad Simmons - I Will
TTITLE10=Izak and West - Stay With Me
TTITLE11=Vince Hatfield - Sweet Sweet Smile
TTITLE12=Patty Loveless - Bluegrass, White Snow
TTITLE13=Smokey River Boys - Bluegrass Christmas
TTITLE14=Geezinslaws - Lighten Up, It's Christmas
TTITLE15=Larkins - O Holy Night
TTITLE16=Dobie Gray - Child
TTITLE17=Doug Wayne - Almost Time For Christmas
TTITLE18=Tresa Street - Christmas of Love
TTITLE19=Kimberly Ann Cook - Glow of Christmas
TTITLE20=Kimberly Ann Cook - A Christmas Baby
EXTD=YEAR: 2002
EXTT0=
EXTT1=
EXTT2=
EXTT3=
EXTT4=
EXTT5=
EXTT6=
EXTT7=
EXTT8=
EXTT9=
EXTT10=
EXTT11=
EXTT12=
EXTT13=
EXTT14=
EXTT15=
EXTT16=
EXTT17=
EXTT18=
EXTT19=
EXTT20=
PLAYORDER=
